<svg id="visual" viewBox="0 0 960 540" width="960" height="540" xmlns="http://www.w3.org/2000/svg" xmlns:xlink="http://www.w3.org/1999/xlink" version="1.1"><g stroke-width="1" stroke-linejoin="bevel"><path d="M455 199L486 0L431 197Z" fill="#243140" stroke="#08EAEA"></path><path d="M486 0L376 0L431 197Z" fill="#1e2e3b" stroke="#08EAEA"></path><path d="M376 0L335 173L431 197Z" fill="#1e2e3b" stroke="#08EAEA"></path><path d="M455 199L660 123L486 0Z" fill="#182a36" stroke="#08EAEA"></path><path d="M106 120L264 258L335 173Z" fill="#283343" stroke="#08EAEA"></path><path d="M335 173L264 258L431 197Z" fill="#202f3c" stroke="#08EAEA"></path><path d="M433 468L567 393L455 199Z" fill="#202f3c" stroke="#08EAEA"></path><path d="M660 123L702 0L486 0Z" fill="#263241" stroke="#08EAEA"></path><path d="M455 199L682 273L660 123Z" fill="#2c3546" stroke="#08EAEA"></path><path d="M845 103L806 0L702 0Z" fill="#263241" stroke="#08EAEA"></path><path d="M567 393L682 273L455 199Z" fill="#2a3444" stroke="#08EAEA"></path><path d="M433 468L455 199L431 197Z" fill="#22303e" stroke="#08EAEA"></path><path d="M376 0L144 0L335 173Z" fill="#2c3546" stroke="#08EAEA"></path><path d="M144 0L106 120L335 173Z" fill="#1a2b38" stroke="#08EAEA"></path><path d="M845 103L702 0L660 123Z" fill="#2c3546" stroke="#08EAEA"></path><path d="M106 120L156 315L264 258Z" fill="#263241" stroke="#08EAEA"></path><path d="M344 459L433 468L431 197Z" fill="#263241" stroke="#08EAEA"></path><path d="M729 452L773 277L682 273Z" fill="#2c3546" stroke="#08EAEA"></path><path d="M682 273L773 277L660 123Z" fill="#263241" stroke="#08EAEA"></path><path d="M344 459L431 197L264 258Z" fill="#1a2b38" stroke="#08EAEA"></path><path d="M190 462L344 459L264 258Z" fill="#202f3c" stroke="#08EAEA"></path><path d="M773 277L845 103L660 123Z" fill="#182a36" stroke="#08EAEA"></path><path d="M0 388L190 462L156 315Z" fill="#1e2e3b" stroke="#08EAEA"></path><path d="M156 315L190 462L264 258Z" fill="#2c3546" stroke="#08EAEA"></path><path d="M302 540L524 540L433 468Z" fill="#2a3444" stroke="#08EAEA"></path><path d="M302 540L433 468L344 459Z" fill="#263241" stroke="#08EAEA"></path><path d="M433 468L524 540L567 393Z" fill="#2c3546" stroke="#08EAEA"></path><path d="M567 393L729 452L682 273Z" fill="#2a3444" stroke="#08EAEA"></path><path d="M645 540L729 452L567 393Z" fill="#2c3546" stroke="#08EAEA"></path><path d="M960 201L960 0L845 103Z" fill="#243140" stroke="#08EAEA"></path><path d="M106 120L0 232L156 315Z" fill="#1c2c39" stroke="#08EAEA"></path><path d="M0 0L0 136L106 120Z" fill="#182a36" stroke="#08EAEA"></path><path d="M144 0L0 0L106 120Z" fill="#1e2e3b" stroke="#08EAEA"></path><path d="M190 462L302 540L344 459Z" fill="#2a3444" stroke="#08EAEA"></path><path d="M0 136L0 232L106 120Z" fill="#1a2b38" stroke="#08EAEA"></path><path d="M524 540L645 540L567 393Z" fill="#202f3c" stroke="#08EAEA"></path><path d="M845 103L960 0L806 0Z" fill="#22303e" stroke="#08EAEA"></path><path d="M960 201L845 103L773 277Z" fill="#263241" stroke="#08EAEA"></path><path d="M0 540L183 540L190 462Z" fill="#263241" stroke="#08EAEA"></path><path d="M190 462L183 540L302 540Z" fill="#1e2e3b" stroke="#08EAEA"></path><path d="M960 321L960 201L773 277Z" fill="#2a3444" stroke="#08EAEA"></path><path d="M0 232L0 388L156 315Z" fill="#1a2b38" stroke="#08EAEA"></path><path d="M960 396L773 277L729 452Z" fill="#202f3c" stroke="#08EAEA"></path><path d="M960 396L960 321L773 277Z" fill="#182a36" stroke="#08EAEA"></path><path d="M645 540L788 540L729 452Z" fill="#1a2b38" stroke="#08EAEA"></path><path d="M788 540L960 396L729 452Z" fill="#1a2b38" stroke="#08EAEA"></path><path d="M0 388L0 540L190 462Z" fill="#182a36" stroke="#08EAEA"></path><path d="M788 540L960 540L960 396Z" fill="#243140" stroke="#08EAEA"></path></g></svg>