<svg id="visual" viewBox="0 0 540 960" width="540" height="960" xmlns="http://www.w3.org/2000/svg" xmlns:xlink="http://www.w3.org/1999/xlink" version="1.1"><g stroke-width="1" stroke-linejoin="bevel"><path d="M301 462.4L377 452.6L365 378.1Z" fill="#1c2c39" stroke="#08EAEA"></path><path d="M365 378.1L301 349.1L301 462.4Z" fill="#2a3444" stroke="#08EAEA"></path><path d="M420 478.4L417 455.4L377 452.6Z" fill="#243140" stroke="#08EAEA"></path><path d="M377 452.6L417 455.4L365 378.1Z" fill="#1e2e3b" stroke="#08EAEA"></path><path d="M333 571.9L420 478.4L377 452.6Z" fill="#243140" stroke="#08EAEA"></path><path d="M301 349.1L222 493.6L301 462.4Z" fill="#22303e" stroke="#08EAEA"></path><path d="M301 462.4L314 561.6L377 452.6Z" fill="#182a36" stroke="#08EAEA"></path><path d="M222 493.6L314 561.6L301 462.4Z" fill="#2a3444" stroke="#08EAEA"></path><path d="M314 561.6L333 571.9L377 452.6Z" fill="#263241" stroke="#08EAEA"></path><path d="M478 312.1L348 248.8L365 378.1Z" fill="#243140" stroke="#08EAEA"></path><path d="M365 378.1L348 248.8L301 349.1Z" fill="#243140" stroke="#08EAEA"></path><path d="M301 349.1L179 316.8L222 493.6Z" fill="#263241" stroke="#08EAEA"></path><path d="M514 493.6L478 312.1L417 455.4Z" fill="#283343" stroke="#08EAEA"></path><path d="M417 455.4L478 312.1L365 378.1Z" fill="#1c2c39" stroke="#08EAEA"></path><path d="M249 235.5L179 316.8L301 349.1Z" fill="#182a36" stroke="#08EAEA"></path><path d="M438 626.2L514 493.6L420 478.4Z" fill="#1e2e3b" stroke="#08EAEA"></path><path d="M420 478.4L514 493.6L417 455.4Z" fill="#2a3444" stroke="#08EAEA"></path><path d="M179 316.8L149 481.4L222 493.6Z" fill="#1c2c39" stroke="#08EAEA"></path><path d="M177 628.9L269 673.2L314 561.6Z" fill="#182a36" stroke="#08EAEA"></path><path d="M314 561.6L269 673.2L333 571.9Z" fill="#243140" stroke="#08EAEA"></path><path d="M269 673.2L399 605.9L333 571.9Z" fill="#1a2b38" stroke="#08EAEA"></path><path d="M333 571.9L399 605.9L420 478.4Z" fill="#243140" stroke="#08EAEA"></path><path d="M348 248.8L249 235.5L301 349.1Z" fill="#1a2b38" stroke="#08EAEA"></path><path d="M540 552.6L540 495.4L514 493.6Z" fill="#202f3c" stroke="#08EAEA"></path><path d="M514 493.6L540 495.4L478 312.1Z" fill="#1e2e3b" stroke="#08EAEA"></path><path d="M144 306.1L131 335.1L179 316.8Z" fill="#22303e" stroke="#08EAEA"></path><path d="M179 316.8L131 335.1L149 481.4Z" fill="#202f3c" stroke="#08EAEA"></path><path d="M34 451.6L130 508.4L149 481.4Z" fill="#1c2c39" stroke="#08EAEA"></path><path d="M149 481.4L130 508.4L222 493.6Z" fill="#22303e" stroke="#08EAEA"></path><path d="M249 235.5L144 306.1L179 316.8Z" fill="#2a3444" stroke="#08EAEA"></path><path d="M424 152.5L300 198.8L348 248.8Z" fill="#283343" stroke="#08EAEA"></path><path d="M348 248.8L300 198.8L249 235.5Z" fill="#2c3546" stroke="#08EAEA"></path><path d="M110 156.5L110 293.8L144 306.1Z" fill="#2a3444" stroke="#08EAEA"></path><path d="M377 749.2L438 626.2L399 605.9Z" fill="#2c3546" stroke="#08EAEA"></path><path d="M399 605.9L438 626.2L420 478.4Z" fill="#1c2c39" stroke="#08EAEA"></path><path d="M438 626.2L540 552.6L514 493.6Z" fill="#243140" stroke="#08EAEA"></path><path d="M540 495.4L540 281.1L478 312.1Z" fill="#1e2e3b" stroke="#08EAEA"></path><path d="M478 312.1L475 215.8L348 248.8Z" fill="#283343" stroke="#08EAEA"></path><path d="M540 281.1L475 215.8L478 312.1Z" fill="#202f3c" stroke="#08EAEA"></path><path d="M110 156.5L144 306.1L249 235.5Z" fill="#1e2e3b" stroke="#08EAEA"></path><path d="M144 306.1L110 293.8L131 335.1Z" fill="#263241" stroke="#08EAEA"></path><path d="M131 335.1L34 451.6L149 481.4Z" fill="#2a3444" stroke="#08EAEA"></path><path d="M177 628.9L314 561.6L222 493.6Z" fill="#1e2e3b" stroke="#08EAEA"></path><path d="M130 508.4L177 628.9L222 493.6Z" fill="#202f3c" stroke="#08EAEA"></path><path d="M540 638.9L515 614.9L438 626.2Z" fill="#182a36" stroke="#08EAEA"></path><path d="M438 626.2L515 614.9L540 552.6Z" fill="#243140" stroke="#08EAEA"></path><path d="M540 150.3L424 152.5L475 215.8Z" fill="#263241" stroke="#08EAEA"></path><path d="M475 215.8L424 152.5L348 248.8Z" fill="#22303e" stroke="#08EAEA"></path><path d="M540 281.1L540 210.8L475 215.8Z" fill="#1c2c39" stroke="#08EAEA"></path><path d="M540 736.5L540 638.9L438 626.2Z" fill="#2c3546" stroke="#08EAEA"></path><path d="M515 614.9L540 638.9L540 552.6Z" fill="#182a36" stroke="#08EAEA"></path><path d="M0 434.4L34 451.6L0 338.1Z" fill="#1c2c39" stroke="#08EAEA"></path><path d="M130 508.4L116 668.9L177 628.9Z" fill="#22303e" stroke="#08EAEA"></path><path d="M424 152.5L351 113.5L300 198.8Z" fill="#1e2e3b" stroke="#08EAEA"></path><path d="M109 137.3L110 156.5L122 103.3Z" fill="#243140" stroke="#08EAEA"></path><path d="M394 74.3L351 113.5L424 152.5Z" fill="#243140" stroke="#08EAEA"></path><path d="M540 210.8L540 185.5L475 215.8Z" fill="#2c3546" stroke="#08EAEA"></path><path d="M177 628.9L173 694.2L269 673.2Z" fill="#2c3546" stroke="#08EAEA"></path><path d="M269 673.2L377 749.2L399 605.9Z" fill="#1a2b38" stroke="#08EAEA"></path><path d="M116 668.9L173 694.2L177 628.9Z" fill="#182a36" stroke="#08EAEA"></path><path d="M0 585.6L116 668.9L130 508.4Z" fill="#1c2c39" stroke="#08EAEA"></path><path d="M305 776.5L377 749.2L269 673.2Z" fill="#182a36" stroke="#08EAEA"></path><path d="M0 338.1L34 451.6L131 335.1Z" fill="#1e2e3b" stroke="#08EAEA"></path><path d="M34 451.6L0 575.9L130 508.4Z" fill="#202f3c" stroke="#08EAEA"></path><path d="M540 185.5L540 150.3L475 215.8Z" fill="#1c2c39" stroke="#08EAEA"></path><path d="M0 321.8L0 338.1L110 293.8Z" fill="#182a36" stroke="#08EAEA"></path><path d="M110 293.8L0 338.1L131 335.1Z" fill="#182a36" stroke="#08EAEA"></path><path d="M110 156.5L249 235.5L122 103.3Z" fill="#263241" stroke="#08EAEA"></path><path d="M0 186.5L0 321.8L110 293.8Z" fill="#182a36" stroke="#08EAEA"></path><path d="M403 62.3L394 74.3L424 152.5Z" fill="#263241" stroke="#08EAEA"></path><path d="M122 103.3L249 235.5L300 198.8Z" fill="#22303e" stroke="#08EAEA"></path><path d="M186 747.5L305 776.5L269 673.2Z" fill="#2c3546" stroke="#08EAEA"></path><path d="M186 747.5L269 673.2L173 694.2Z" fill="#1a2b38" stroke="#08EAEA"></path><path d="M116 668.9L186 747.5L173 694.2Z" fill="#1e2e3b" stroke="#08EAEA"></path><path d="M122 103.3L300 198.8L218 22.3Z" fill="#1e2e3b" stroke="#08EAEA"></path><path d="M110 156.5L0 186.5L110 293.8Z" fill="#283343" stroke="#08EAEA"></path><path d="M540 150.3L403 62.3L424 152.5Z" fill="#1e2e3b" stroke="#08EAEA"></path><path d="M218 22.3L300 198.8L351 113.5Z" fill="#1c2c39" stroke="#08EAEA"></path><path d="M0 434.4L0 575.9L34 451.6Z" fill="#1a2b38" stroke="#08EAEA"></path><path d="M116 668.9L54 717.2L186 747.5Z" fill="#1c2c39" stroke="#08EAEA"></path><path d="M0 575.9L0 585.6L130 508.4Z" fill="#283343" stroke="#08EAEA"></path><path d="M122 103.3L89 140.5L109 137.3Z" fill="#2c3546" stroke="#08EAEA"></path><path d="M109 137.3L89 140.5L110 156.5Z" fill="#1a2b38" stroke="#08EAEA"></path><path d="M377 749.2L540 736.5L438 626.2Z" fill="#1c2c39" stroke="#08EAEA"></path><path d="M404 795.5L540 736.5L377 749.2Z" fill="#202f3c" stroke="#08EAEA"></path><path d="M342 815.7L404 795.5L377 749.2Z" fill="#2c3546" stroke="#08EAEA"></path><path d="M218 22.3L351 113.5L250 0Z" fill="#243140" stroke="#08EAEA"></path><path d="M209 839.5L342 815.7L305 776.5Z" fill="#182a36" stroke="#08EAEA"></path><path d="M305 776.5L342 815.7L377 749.2Z" fill="#1a2b38" stroke="#08EAEA"></path><path d="M0 585.6L0 632.2L116 668.9Z" fill="#2a3444" stroke="#08EAEA"></path><path d="M404 795.5L540 766.2L540 736.5Z" fill="#182a36" stroke="#08EAEA"></path><path d="M540 908.7L540 766.2L404 795.5Z" fill="#2a3444" stroke="#08EAEA"></path><path d="M0 632.2L54 717.2L116 668.9Z" fill="#22303e" stroke="#08EAEA"></path><path d="M186 747.5L209 839.5L305 776.5Z" fill="#283343" stroke="#08EAEA"></path><path d="M342 815.7L389 825.7L404 795.5Z" fill="#2a3444" stroke="#08EAEA"></path><path d="M0 137.3L0 186.5L89 140.5Z" fill="#263241" stroke="#08EAEA"></path><path d="M89 140.5L0 186.5L110 156.5Z" fill="#202f3c" stroke="#08EAEA"></path><path d="M354 0L351 113.5L394 74.3Z" fill="#1e2e3b" stroke="#08EAEA"></path><path d="M77 0L0 137.3L89 140.5Z" fill="#1a2b38" stroke="#08EAEA"></path><path d="M465 0L354 0L403 62.3Z" fill="#1a2b38" stroke="#08EAEA"></path><path d="M403 62.3L354 0L394 74.3Z" fill="#2a3444" stroke="#08EAEA"></path><path d="M354 0L250 0L351 113.5Z" fill="#263241" stroke="#08EAEA"></path><path d="M250 0L241 0L218 22.3Z" fill="#202f3c" stroke="#08EAEA"></path><path d="M77 0L89 140.5L122 103.3Z" fill="#283343" stroke="#08EAEA"></path><path d="M46 768.5L209 839.5L186 747.5Z" fill="#1a2b38" stroke="#08EAEA"></path><path d="M342 815.7L379 893.7L389 825.7Z" fill="#202f3c" stroke="#08EAEA"></path><path d="M77 0L122 103.3L218 22.3Z" fill="#2a3444" stroke="#08EAEA"></path><path d="M540 150.3L465 0L403 62.3Z" fill="#1e2e3b" stroke="#08EAEA"></path><path d="M0 632.2L46 768.5L54 717.2Z" fill="#182a36" stroke="#08EAEA"></path><path d="M54 717.2L46 768.5L186 747.5Z" fill="#283343" stroke="#08EAEA"></path><path d="M540 150.3L540 0L465 0Z" fill="#283343" stroke="#08EAEA"></path><path d="M87 929.7L215 875.7L209 839.5Z" fill="#182a36" stroke="#08EAEA"></path><path d="M209 839.5L215 875.7L342 815.7Z" fill="#243140" stroke="#08EAEA"></path><path d="M288 960L379 893.7L342 815.7Z" fill="#2c3546" stroke="#08EAEA"></path><path d="M389 825.7L540 908.7L404 795.5Z" fill="#1e2e3b" stroke="#08EAEA"></path><path d="M241 0L77 0L218 22.3Z" fill="#2c3546" stroke="#08EAEA"></path><path d="M379 893.7L540 908.7L389 825.7Z" fill="#263241" stroke="#08EAEA"></path><path d="M77 0L0 0L0 137.3Z" fill="#283343" stroke="#08EAEA"></path><path d="M46 768.5L87 929.7L209 839.5Z" fill="#182a36" stroke="#08EAEA"></path><path d="M0 632.2L0 845.5L46 768.5Z" fill="#1c2c39" stroke="#08EAEA"></path><path d="M288 960L376 960L379 893.7Z" fill="#2a3444" stroke="#08EAEA"></path><path d="M379 893.7L502 960L540 908.7Z" fill="#1e2e3b" stroke="#08EAEA"></path><path d="M288 960L342 815.7L215 875.7Z" fill="#2c3546" stroke="#08EAEA"></path><path d="M201 960L288 960L215 875.7Z" fill="#182a36" stroke="#08EAEA"></path><path d="M160 960L201 960L215 875.7Z" fill="#1c2c39" stroke="#08EAEA"></path><path d="M376 960L502 960L379 893.7Z" fill="#2a3444" stroke="#08EAEA"></path><path d="M0 845.5L87 929.7L46 768.5Z" fill="#182a36" stroke="#08EAEA"></path><path d="M87 929.7L160 960L215 875.7Z" fill="#1e2e3b" stroke="#08EAEA"></path><path d="M502 960L540 960L540 908.7Z" fill="#182a36" stroke="#08EAEA"></path><path d="M0 845.5L0 918.7L87 929.7Z" fill="#1a2b38" stroke="#08EAEA"></path><path d="M87 929.7L0 960L160 960Z" fill="#1c2c39" stroke="#08EAEA"></path><path d="M0 918.7L0 960L87 929.7Z" fill="#1c2c39" stroke="#08EAEA"></path></g></svg>